mtllib ENV_Nebula_Blue_01.mtl
o Nebula_Stars
v -32.104366302490234 -86.65736389160156 104.322509765625
v -501.1264953613281 -94.69779205322266 -444.73028564453125
v -324.28515625 244.02415466308594 474.5408630371094
v 416.1673278808594 194.98158264160156 74.99041748046875
v -4.543033123016357 130.8985137939453 474.8668212890625
v -317.31280517578125 13.96630573272705 -238.62936401367188
v 100.9391860961914 -212.655029296875 -413.4653625488281
v -119.5378189086914 -146.84544372558594 231.3315887451172
v 431.1479187011719 19.40585708618164 -421.3309020996094
v 411.5538635253906 54.61418151855469 -391.88671875
v 17.020376205444336 116.0469741821289 327.7276306152344
v -384.4625549316406 -184.0175018310547 -296.2198486328125
v 115.43986511230469 -122.6309585571289 -324.70538330078125
v -455.3125915527344 -31.739885330200195 170.09365844726562
v 365.6263122558594 126.95085906982422 -176.0746612548828
v -412.0672607421875 -189.58245849609375 -286.3556213378906
v 53.52555847167969 -117.75298309326172 -179.96652221679688
v -80.49478912353516 13.819604873657227 264.37060546875
v 245.847900390625 213.26771545410156 360.73858642578125
v 91.18871307373047 242.8708953857422 -305.0502624511719
v 308.0779113769531 -119.86457824707031 3.1358840465545654
v -436.8121032714844 32.99657440185547 -328.96685791015625
v -498.9249267578125 132.04278564453125 -419.3763732910156
v -39.1326789855957 -63.403846740722656 -140.09527587890625
v -134.19432067871094 109.1283950805664 -171.28057861328125
v 127.9730453491211 -10.555994033813477 -299.1227111816406
v -421.70538330078125 6.34160041809082 191.21900939941406
v -35.5681266784668 37.65851593017578 347.6011047363281
v -33.94403076171875 -18.01491355895996 -344.40185546875
v 459.4337158203125 -115.67696380615234 149.44216918945312
v 250.05990600585938 -113.19690704345703 -142.77059936523438
v 73.23625183105469 158.61497497558594 -350.80157470703125
v -464.2863464355469 243.72584533691406 278.2835693359375
v -85.00902557373047 -203.61453247070312 -7.344521999359131
v 121.38252258300781 -24.814903259277344 -183.893798828125
v -264.1264953613281 171.03042602539062 294.8430480957031
v -149.35226440429688 -166.21690368652344 502.4075012207031
v 13.911093711853027 -87.2952651977539 359.33843994140625
v 23.795698165893555 210.52688598632812 449.775146484375
v 444.1339416503906 15.954733848571777 -200.42864990234375
v -492.0456237792969 76.3319320678711 284.8167724609375
v 308.03692626953125 38.18027114868164 503.8200378417969
v -421.1603088378906 60.554012298583984 -327.3393249511719
v 54.82237243652344 107.48567962646484 -450.5525207519531
v 357.2470397949219 220.42530822753906 224.58987426757812
v -265.4962463378906 213.9403839111328 -70.08937072753906
v -358.781005859375 -9.04978084564209 168.25723266601562
v -169.31497192382812 -9.45706844329834 49.18547821044922
v -68.75660705566406 229.5590362548828 -468.774658203125
v -156.31056213378906 168.7684783935547 -90.51506805419922
v 399.8814697265625 163.12164306640625 -497.5025634765625
v 55.69560241699219 95.97789001464844 -411.494384765625
v -408.1009216308594 134.29139709472656 -111.74778747558594
v 499.6490783691406 -10.322178840637207 -93.07551574707031
v 287.2693176269531 101.07815551757812 -109.83285522460938
v -356.04925537109375 -29.855520248413086 -475.52471923828125
v 404.3383483886719 3.5424702167510986 -301.48779296875
v 70.28385162353516 -12.240382194519043 -207.33067321777344
v 90.99181365966797 170.056884765625 50.61728286743164
v 293.42498779296875 90.05590057373047 477.084228515625
v 330.8316650390625 180.19810485839844 -262.6361999511719
v 280.49444580078125 -122.57035827636719 -170.87081909179688
v -221.82974243164062 -212.48704528808594 385.0227355957031
v -140.16497802734375 -114.74768829345703 195.30398559570312
v -466.929931640625 40.64365768432617 164.05825805664062
v 25.568618774414062 33.19824981689453 -263.7960510253906
v -13.2955961227417 13.102380752563477 -464.5620422363281
v 197.8632354736328 -166.49559020996094 70.88196563720703
v -345.0135192871094 215.85231018066406 341.5374450683594
v -9.946578979492188 154.08880615234375 411.6635437011719
v 229.71096801757812 146.28216552734375 -50.10051345825195
v -471.0091552734375 -0.5219858288764954 313.1197204589844
v 346.3739013671875 233.6531982421875 62.903594970703125
v -150.63848876953125 -136.1703643798828 37.63727951049805
v 223.384033203125 -241.84739685058594 9.825439453125
v 127.19017791748047 111.48455047607422 337.88555908203125
v -436.44964599609375 -204.1958770751953 26.810813903808594
v 323.362060546875 -147.05572509765625 -259.5376892089844
v -87.47279357910156 70.16673278808594 -80.03827667236328
v -130.2735137939453 -154.5575408935547 8.11181926727295
v 403.3208923339844 -66.5059814453125 -343.9713134765625
v 427.2059020996094 -225.13467407226562 -48.858150482177734
v 68.00777435302734 230.33201599121094 429.125244140625
v -43.68095016479492 127.174560546875 -368.9739074707031
v 262.48638916015625 -93.09993743896484 -322.57244873046875
v -331.3648681640625 -181.8033905029297 113.66236114501953
v -465.6173400878906 -212.4708251953125 -90.00609588623047
v -136.08828735351562 -161.83360290527344 -106.63285827636719
v -144.85086059570312 -47.575504302978516 -2.364276170730591
v 73.02701568603516 -100.75116729736328 -479.5795593261719
v -430.0537414550781 142.5731964111328 -389.8064270019531
v 248.30274963378906 75.91040802001953 143.8351593017578
v 320.0654296875 -52.763858795166016 -211.38134765625
v 145.42233276367188 120.9736557006836 330.0089416503906
v -234.54977416992188 -103.35836029052734 -77.06815338134766
v 483.88409423828125 21.961139678955078 -267.9737854003906
v 246.29493713378906 -189.2584228515625 -106.57018280029297
v 346.7880859375 222.42120361328125 -37.38762283325195
v -488.2550354003906 -192.3050537109375 9.428685188293457
v -39.25996017456055 -155.1736297607422 309.1012878417969
v -342.6029357910156 28.61103057861328 -149.61634826660156
v -406.23541259765625 -99.15391540527344 -367.738037109375
v 86.59320831298828 -72.48588562011719 253.3939971923828
v 414.3551940917969 -17.180871963500977 191.4395294189453
v 102.42408752441406 -197.01608276367188 229.90023803710938
v -160.85321044921875 -1.4133145809173584 -420.8002624511719
v -341.09466552734375 -158.0195770263672 223.80201721191406
v -240.81813049316406 -114.00428771972656 364.5260314941406
v 333.96112060546875 34.47914505004883 62.27191925048828
v -245.6497344970703 136.8430938720703 201.60226440429688
v -31.353395462036133 -40.77752685546875 194.212646484375
v 405.3168640136719 -73.6954116821289 -379.67620849609375
v 409.463134765625 -180.36500549316406 -453.39825439453125
v 115.11129760742188 96.47831726074219 313.91363525390625
v 348.66619873046875 -99.7447280883789 406.8895568847656
v -150.46241760253906 231.07127380371094 -82.6197280883789
v 88.1386947631836 -30.596200942993164 339.1638488769531
v 399.6714782714844 -228.03199768066406 139.0377960205078
v 366.6983337402344 -251.26336669921875 -422.0347595214844
v 127.94750213623047 -103.05586242675781 -39.08184051513672
v -176.36936950683594 -35.673770904541016 3.4356820583343506
v -375.3033142089844 210.6235809326172 -242.3595733642578
v 361.784912109375 -37.534278869628906 439.9029846191406
v 393.48114013671875 167.42613220214844 -395.8394470214844
v -199.25645446777344 88.01030731201172 -367.9478759765625
v -423.8197021484375 -192.78614807128906 117.8099365234375
v 489.3704833984375 -92.75128936767578 129.50555419921875
v -370.4817810058594 163.11744689941406 -379.8594665527344
v -227.53167724609375 -57.45988464355469 -449.0685729980469
v -227.41896057128906 10.110010147094727 -151.6719512939453
v 149.3186492919922 139.75674438476562 -70.27902221679688
v 474.857421875 87.7941665649414 -210.75485229492188
v -318.4466857910156 -204.5608673095703 -404.1769714355469
v -42.55503845214844 245.07908630371094 -485.2003173828125
v -76.89938354492188 84.00106048583984 -426.5050048828125
v 347.2992248535156 247.4477996826172 -492.25628662109375
v 294.8725280761719 245.8133544921875 -464.4725646972656
v -37.23812484741211 192.85084533691406 9.89217758178711
v 334.40557861328125 8.050191879272461 33.920501708984375
v -350.9115295410156 -30.5892391204834 334.55047607421875
v 306.8406982421875 -144.7010040283203 -499.9623718261719
v 140.30621337890625 -37.4168815612793 164.9339599609375
v 63.42291259765625 205.614501953125 -335.066162109375
v -366.5340576171875 130.6927947998047 65.47177124023438
v -275.8747863769531 91.4399642944336 -484.1473083496094
v -237.78778076171875 -82.64939880371094 -69.87748718261719
v -478.9537353515625 -10.87714672088623 56.80796813964844
v 59.57969665527344 26.653369903564453 432.1873474121094
v 443.9048156738281 -158.8800048828125 -481.2869567871094
v 116.03350067138672 17.78200340270996 -405.408203125
v -186.75047302246094 234.91639709472656 -81.3075180053711
v -40.99463653564453 101.13492584228516 375.2162170410156
v 229.92538452148438 181.67442321777344 458.0077819824219
v 119.53697204589844 187.9707489013672 -118.41097259521484
v 481.8847351074219 243.1846466064453 -95.54944610595703
v 49.12618637084961 9.182162284851074 -491.88299560546875
v -273.3976135253906 -96.69325256347656 303.10369873046875
v -251.51878356933594 -194.21597290039062 -57.98929977416992
v -339.8482360839844 -38.73126983642578 222.0426788330078
v -467.3778076171875 -246.52781677246094 354.17230224609375
v 67.42032623291016 202.4347686767578 181.8462677001953
v -393.37091064453125 89.69532012939453 -406.4517822265625
v -475.0101013183594 96.95672607421875 334.7073974609375
v 434.31890869140625 169.5806427001953 204.80767822265625
v 133.87901306152344 -204.4084930419922 -154.51744079589844
v 339.2449645996094 176.26535034179688 308.6927490234375
v 20.641389846801758 -169.60366821289062 234.18881225585938
v -385.3547668457031 169.20875549316406 -11.004859924316406
v -250.76324462890625 133.50575256347656 210.25587463378906
v -204.674072265625 -15.603487014770508 -293.150634765625
v 367.6366882324219 23.24958610534668 -5.739051818847656
v 258.95098876953125 -131.50369262695312 338.890625
v 223.30038452148438 200.9873046875 -270.07757568359375
v 207.8178253173828 -95.51435852050781 -242.1890869140625
v -100.54817199707031 -210.28509521484375 -395.20086669921875
v 301.9335021972656 206.5455780029297 -359.0438232421875
v -35.48783874511719 -173.758056640625 -170.5602569580078
v -390.9346618652344 76.60034942626953 -236.15921020507812
v 101.08735656738281 124.04120635986328 330.6480712890625
v 170.42391967773438 -134.7187957763672 41.81639862060547
v 263.5835876464844 -194.75897216796875 -397.9228820800781
v 414.74658203125 131.80368041992188 -128.3845977783203
v -104.1805648803711 181.1592559814453 19.536962509155273
v -96.21742248535156 3.7709882259368896 414.0992431640625
v 316.926025390625 -127.22915649414062 -463.8022766113281
v -182.45794677734375 -107.24772644042969 -210.72398376464844
v -337.6273498535156 157.05517578125 235.2913818359375
v 315.1539001464844 230.1326141357422 -108.4887924194336
v 122.1282730102539 213.78659057617188 17.962797164916992
v 467.7879638671875 143.69297790527344 -188.16026306152344
v 484.7647399902344 145.5112762451172 0.5920673608779907
v -75.16922760009766 104.1513671875 -453.60308837890625
v -110.26898193359375 238.69606018066406 -239.79241943359375
v -469.6360778808594 185.98280334472656 422.22015380859375
v -498.9267883300781 97.83882141113281 -430.4694519042969
v -191.02198791503906 -74.26632690429688 115.0330581665039
v -12.451964378356934 64.19804382324219 -440.2608337402344
v 139.06495666503906 109.25743865966797 11.107134819030762
v -394.6262512207031 90.22823333740234 -401.7882080078125
v -473.0345153808594 234.3217315673828 -24.09328842163086
v -362.2156066894531 187.30038452148438 -98.69375610351562
v -190.29193115234375 210.3731231689453 -417.0439147949219
v -406.89935302734375 229.34130859375 485.6534423828125
v -201.4395751953125 74.39395141601562 -145.77195739746094
v -104.7984619140625 6.142709732055664 330.49072265625
v 337.22296142578125 198.24696350097656 383.336669921875
v -363.9209289550781 156.770751953125 -146.76768493652344
v -369.7707214355469 -247.8236083984375 -190.0726318359375
v -449.4208984375 -0.7510792016983032 -302.2288818359375
v 289.9772644042969 -59.279273986816406 -213.1092987060547
v -230.5210418701172 -249.00820922851562 494.9273986816406
v 33.79877853393555 -177.30987548828125 -481.6134033203125
v 71.72380828857422 -99.16571807861328 -347.99200439453125
v 10.586098670959473 107.57305145263672 109.14961242675781
v -435.0587158203125 231.4310302734375 54.61000061035156
v -483.2735900878906 -235.74044799804688 1.155094861984253
v -341.7249450683594 -48.20775604248047 -98.39878845214844
v -107.5439453125 181.80506896972656 -102.5388412475586
v 360.1256408691406 -44.72248458862305 466.63055419921875
v 39.23033142089844 -76.39340209960938 175.8997802734375
v 82.5575180053711 -168.0140380859375 221.5688934326172
v 169.31346130371094 5.3244757652282715 4.2755866050720215
v -429.0698547363281 -12.339075088500977 -152.04747009277344
v 49.52871322631836 -143.34405517578125 -9.1602144241333
v -159.26951599121094 85.46949005126953 244.79855346679688
v -381.0328674316406 63.153114318847656 -457.9588623046875
v 128.63299560546875 -124.17800903320312 342.0830078125
v -155.56175231933594 -75.82391357421875 -15.084606170654297
v -193.51580810546875 -111.73638153076172 423.7198181152344
v -93.44464874267578 -131.71713256835938 414.9588928222656
v -127.79412841796875 -32.099910736083984 147.0502166748047
v 402.5821838378906 23.38144302368164 470.9413146972656
v 455.53302001953125 -249.68850708007812 -263.3507385253906
v 368.5274658203125 -16.694934844970703 62.847103118896484
v -437.9505920410156 30.963050842285156 -300.3219299316406
v 273.45782470703125 46.62029266357422 -241.00558471679688
v 221.15545654296875 229.2388458251953 77.05697631835938
v -461.3904724121094 236.93833923339844 -319.63525390625
v -110.59970092773438 176.9040985107422 -175.59274291992188
v 397.6130676269531 232.2737274169922 161.2857666015625
v -246.96890258789062 -44.45608139038086 300.0049743652344
v -190.99534606933594 -76.42010498046875 -13.15545654296875
v 443.6605224609375 150.83102416992188 146.91358947753906
v -230.81723022460938 202.99049377441406 -476.2328796386719
v -32.37565612792969 -77.1578598022461 448.0076599121094
v -223.9225311279297 -147.9948272705078 217.9854278564453
v -260.10174560546875 218.5725555419922 276.7729187011719
v 384.0340881347656 148.38284301757812 -294.2783203125
v 174.36514282226562 -45.209617614746094 -365.43603515625
v 399.7731018066406 187.3410186767578 134.6542205810547
v -307.2293701171875 -40.073158264160156 467.42315673828125
v -151.22854614257812 175.30819702148438 176.58935546875
v -210.12353515625 98.31600952148438 -460.3885498046875
v -49.97941589355469 -251.56268310546875 56.0467414855957
v 31.118663787841797 -31.722761154174805 -278.32708740234375
v -330.14923095703125 22.861892700195312 -416.72369384765625
v 348.498779296875 162.7755584716797 -484.8476257324219
v 341.370361328125 28.761930465698242 224.45840454101562
v -352.51629638671875 -8.799835205078125 -356.99267578125
v 38.053123474121094 -46.79425811767578 169.19883728027344
v -270.6387023925781 -177.33189392089844 -208.6985321044922
v 333.1165466308594 198.94418334960938 52.914039611816406
v -47.20402145385742 -227.3097686767578 408.9404602050781
v -448.43231201171875 227.3576202392578 98.31184387207031
v 4.250183582305908 -188.47164916992188 293.0056457519531
v -291.8467712402344 219.09176635742188 74.90715789794922
v -489.51513671875 -88.37248992919922 -313.3351135253906
v 428.9341735839844 229.06692504882812 317.3713684082031
v 162.52349853515625 -179.37567138671875 -34.314327239990234
v 491.8154296875 83.006103515625 -412.5013732910156
v -283.7387390136719 177.1120147705078 -484.7522277832031
v -144.90538024902344 -62.09895706176758 425.6817321777344
v -346.6767578125 -69.91505432128906 -255.95042419433594
v -412.0458679199219 -25.578977584838867 367.0245666503906
v 213.82151794433594 -96.70962524414062 222.62417602539062
v -236.19558715820312 26.667654037475586 -398.4229736328125
v -374.6659851074219 -73.91801452636719 454.3280334472656
v -282.5039367675781 193.3900604248047 -127.33610534667969
v 284.7235412597656 172.2996368408203 9.637073516845703
v 75.6529312133789 8.298086166381836 -265.1131286621094
v 84.33879852294922 55.692012786865234 296.181640625
v 276.73736572265625 -163.05291748046875 -58.88503646850586
v -481.3154296875 59.9533576965332 -66.62577056884766
v 134.94329833984375 31.316526412963867 102.63658142089844
v -495.1785888671875 -158.93714904785156 -173.47010803222656
v -463.3777770996094 -103.8346939086914 -228.36827087402344
v 394.5509948730469 8.79478931427002 162.05201721191406
v 76.6817398071289 -46.97979736328125 393.2318420410156
v -348.1340026855469 -235.49021911621094 443.5522766113281
v -463.7447204589844 -74.26009368896484 -291.33074951171875
v -473.8101806640625 -184.85769653320312 -166.30392456054688
v 154.92616271972656 29.495492935180664 -95.62246704101562
v 477.60321044921875 178.16639709472656 -242.88893127441406
v 235.89889526367188 248.2189178466797 245.38856506347656
v -60.447731018066406 10.751968383789062 -1.1311540603637695
v 347.74420166015625 127.59498596191406 143.98118591308594
v 448.4534912109375 -18.18480110168457 -420.1539306640625
v -13.295480728149414 109.00765228271484 75.27103424072266
v 391.1590576171875 -78.27761840820312 307.6940002441406
v -217.969482421875 34.00046920776367 171.29052734375
v -232.58302307128906 -245.47718811035156 189.1912384033203
v 474.42852783203125 -35.72848892211914 295.0918273925781
v -361.7423400878906 -74.73341369628906 -494.57232666015625
v -194.56631469726562 34.496829986572266 475.51568603515625
v 175.6605682373047 39.70500183105469 122.56307983398438
v 434.38238525390625 81.86226654052734 -61.496971130371094
v 398.9013671875 -73.02371978759766 -27.173242568969727
v -335.3577575683594 54.58195877075195 193.18553161621094
v 309.651611328125 225.24620056152344 -148.0288848876953
v -17.132726669311523 -142.60720825195312 -480.52398681640625
v 8.200374603271484 -184.79689025878906 -336.4362487792969
v 209.28018188476562 -189.46249389648438 -66.51142883300781
v -45.911376953125 58.29890060424805 -127.70000457763672
v 366.3429870605469 -146.41485595703125 284.8531494140625
v 388.9944763183594 215.18226623535156 402.9388732910156
v 44.66188430786133 26.085678100585938 -451.1518859863281
v -433.1212463378906 -87.61235809326172 117.5136947631836
v 309.5812683105469 129.0172119140625 231.25904846191406
v -352.8021545410156 -24.476852416992188 276.1387023925781
v 56.65636444091797 -144.2431640625 -408.0182189941406
v -151.5877685546875 82.44268035888672 -192.9685516357422
v 476.0534973144531 140.39271545410156 289.62091064453125
v 430.0657958984375 49.69233322143555 -425.7081298828125
v 227.910888671875 -105.90681457519531 332.69561767578125
v 331.3837585449219 13.388383865356445 100.52558135986328
v -418.1971740722656 84.45963287353516 60.54851531982422
v -122.36705017089844 -126.8863754272461 -381.4283142089844
v 132.68399047851562 115.81327819824219 -484.3377685546875
v 251.41049194335938 5.911308288574219 95.39127349853516
v 228.05047607421875 143.70211791992188 31.823495864868164
v -166.42613220214844 182.51036071777344 242.595458984375
v -370.462158203125 -141.93748474121094 372.4335632324219
v 170.69720458984375 5.03292989730835 137.1381378173828
v 433.7867431640625 -230.0691375732422 245.24789428710938
v -374.26483154296875 142.11488342285156 -50.629173278808594
v -452.8599548339844 25.87456512451172 324.93798828125
v 54.998199462890625 -220.88790893554688 456.9537048339844
v -482.40399169921875 -230.1031951904297 -255.89779663085938
v -501.41046142578125 -48.629817962646484 -12.961095809936523
v 394.42474365234375 -236.03125 -386.28826904296875
v -163.8739776611328 -117.09783172607422 -469.3111877441406
v -146.0334930419922 3.0533666610717773 376.4627990722656
v -312.1380615234375 74.748779296875 -272.3356628417969
v 402.36309814453125 124.00834655761719 -215.8853302001953
v -327.7427978515625 -99.71220397949219 -170.4853057861328
v 393.3340759277344 243.5921173095703 -370.3714294433594
v -468.42279052734375 -47.68626022338867 217.32217407226562
v -503.4067687988281 166.44476318359375 -488.2194519042969
v 394.28472900390625 164.3264923095703 -347.4976806640625
v 263.110595703125 -211.1231689453125 -241.0927734375
v 255.77993774414062 183.64688110351562 -246.2682342529297
v -75.84058380126953 -209.92721557617188 -467.4484558105469
v -161.53245544433594 174.21974182128906 383.3730773925781
v -229.05331420898438 90.40101623535156 246.0106658935547
v 205.17604064941406 207.7692108154297 -128.312744140625
v -450.3891906738281 20.421680450439453 470.147216796875
v 169.62672424316406 158.83892822265625 301.67193603515625
v 495.47869873046875 193.3938446044922 346.30987548828125
v -235.0537872314453 -244.32147216796875 48.535308837890625
v 295.7093505859375 182.10720825195312 -217.18214416503906
v 223.13877868652344 -237.56906127929688 -245.38807678222656
v 353.81024169921875 97.19959259033203 432.1993103027344
v 207.98129272460938 -121.87085723876953 13.94936466217041
v 23.9971923828125 74.2696533203125 350.2320861816406
v -438.02447509765625 50.128299713134766 411.8408203125
v -53.02207565307617 58.555450439453125 163.82032775878906
v 105.78949737548828 -18.721044540405273 -431.74896240234375
v -93.52651977539062 -229.77728271484375 129.84906005859375
v -130.95880126953125 36.889244079589844 -278.6203308105469
v 448.65167236328125 113.89278411865234 -165.6056365966797
v 249.32550048828125 28.82853126525879 177.5281982421875
v 119.63045501708984 -131.5615997314453 100.02479553222656
v -372.9439697265625 237.4922637939453 80.98307800292969
v -237.6808624267578 190.78684997558594 401.4152526855469
v 53.99146270751953 59.27748107910156 -238.1999053955078
v 288.0989685058594 107.99281311035156 423.1030578613281
v 466.2370910644531 157.21046447753906 75.17147064208984
v -27.79521942138672 -207.320068359375 -17.04903221130371
v -76.9402084350586 -123.0770034790039 -439.5207824707031
v 189.1533203125 -68.40213012695312 373.7405700683594
v 468.0257263183594 -47.20946502685547 -107.81482696533203
v 53.173126220703125 -104.99703979492188 -29.69521141052246
v 103.76795959472656 -114.77442932128906 -124.61994934082031
v -494.6743469238281 169.34400939941406 -314.2834777832031
v 365.11199951171875 -12.638528823852539 -136.88958740234375
v 472.866455078125 240.82046508789062 -111.71421813964844
v -73.6649398803711 125.1668930053711 47.524845123291016
v -303.6205749511719 102.27881622314453 230.4765167236328
v 446.0059814453125 192.89793395996094 -458.5728759765625
v 203.32691955566406 -33.87590026855469 -301.66131591796875
v -447.8497314453125 251.2249755859375 131.9960479736328
v 225.89251708984375 -85.05348205566406 136.66098022460938
v 496.40594482421875 -232.1366729736328 -46.771263122558594
v 175.35293579101562 34.899478912353516 267.7832336425781
v -446.6167297363281 -224.4085693359375 -28.914213180541992
v -226.30043029785156 24.013504028320312 -72.13223266601562
v 241.61329650878906 -120.34243774414062 -195.63626098632812
v 244.8400115966797 42.091556549072266 36.412635803222656
v -53.73363494873047 53.255889892578125 -318.00787353515625
v 213.44374084472656 -15.895231246948242 187.89927673339844
v 22.244646072387695 71.49444580078125 -133.2508544921875
v 176.35598754882812 212.59336853027344 275.7017517089844
v -455.7013244628906 30.58277130126953 -220.6877899169922
v 298.4878845214844 -202.02374267578125 -253.25616455078125
v -328.509521484375 -136.66610717773438 -221.89410400390625
v 281.2005615234375 -105.61673736572266 339.8744201660156
v -226.3778839111328 82.0050277709961 412.5823974609375
v -484.5649719238281 32.148136138916016 -399.4583435058594
v -137.8291015625 26.49365997314453 -34.633995056152344
v -384.8007507324219 97.93549346923828 -159.91989135742188
v 208.81915283203125 161.46022033691406 459.11505126953125
v -447.4917907714844 -214.8759002685547 -113.2151870727539
v 363.83807373046875 153.56591796875 486.00177001953125
v -26.518266677856445 120.02937316894531 -275.06976318359375
v -452.6174011230469 -210.8062286376953 488.38238525390625
v 154.0398712158203 249.32150268554688 -335.9979248046875
v -17.824298858642578 -144.73660278320312 -78.47339630126953
v -20.50551986694336 88.08174133300781 -457.3564758300781
v -134.89273071289062 -39.4456901550293 -245.8028106689453
v 496.3202819824219 61.837459564208984 425.1776123046875
v 180.94534301757812 -46.17972946166992 -274.5819396972656
v 105.49789428710938 219.1279296875 -499.94903564453125
v 150.65333557128906 133.40631103515625 -201.0597686767578
v 336.0557861328125 13.175919532775879 414.15447998046875
v -481.2704772949219 168.57276916503906 -480.2875671386719
v 401.7977294921875 -190.42381286621094 57.71002960205078
v -358.46826171875 208.78489685058594 290.0848083496094
v 474.68597412109375 33.06066131591797 330.272216796875
v -451.2781982421875 -4.655655860900879 334.5213317871094
v 179.9608612060547 105.8604736328125 116.37834930419922
v 487.761474609375 -94.58224487304688 177.26791381835938
v 317.8105773925781 226.45919799804688 -69.510986328125
v -262.1863708496094 31.260713577270508 -227.27963256835938
v 75.2656021118164 212.1167449951172 142.09666442871094
v -478.55145263671875 150.73934936523438 374.1585388183594
v -367.0244445800781 218.94264221191406 -437.7619934082031
v -466.77178955078125 114.61941528320312 -377.9407958984375
v 109.63616943359375 13.007655143737793 -306.86871337890625
v 490.5371398925781 149.02223205566406 389.37255859375
v -234.9314422607422 -235.4934539794922 -255.73171997070312
v -251.04881286621094 -152.5608673095703 320.9440002441406
v -275.6883544921875 23.82071876525879 232.02577209472656
v -257.01776123046875 41.2506217956543 -273.31524658203125
v -179.42608642578125 166.9775848388672 228.71990966796875
v -271.79193115234375 138.3137664794922 280.1415100097656
v -44.50069046020508 -202.03512573242188 166.0120849609375
v 407.5946044921875 45.36106491088867 6.787609577178955
v -288.0632019042969 144.13124084472656 229.68359375
v 94.23870849609375 -6.8039937019348145 170.65487670898438
v 114.26237487792969 175.99049377441406 -448.9688415527344
v 497.8071594238281 195.47540283203125 -17.153127670288086
v 29.286888122558594 49.645450592041016 -260.5053405761719
v -14.38136100769043 43.73582458496094 444.021728515625
v -272.1080017089844 170.2578887939453 -109.38729858398438
v 408.61358642578125 -115.2491455078125 66.10419464111328
v 46.77140426635742 -233.98484802246094 90.01123809814453
v 100.37714385986328 236.79847717285156 -244.71632385253906
v -383.98626708984375 69.379150390625 -167.13552856445312
v -71.07131958007812 70.47225952148438 -34.2235107421875
v 462.7474365234375 -100.44727325439453 152.12710571289062
v -58.8376350402832 -101.21271514892578 194.8780975341797
v 258.6783752441406 -207.44149780273438 -83.17903137207031
v 503.6205139160156 38.011619567871094 -492.49774169921875
v -418.9162292480469 -93.40052795410156 -61.2313117980957
v 81.70318603515625 -53.603946685791016 287.7015075683594
v -102.31282043457031 -206.0439453125 -468.5986328125
v -500.53546142578125 -101.72029113769531 -157.41526794433594
v 116.82195281982422 10.072946548461914 444.62646484375
v 366.8180236816406 85.41621398925781 313.5949401855469
v 104.40135192871094 -152.79994201660156 -257.7731018066406
v -230.73031616210938 -40.70507049560547 496.2818908691406
v -290.5531921386719 -220.52471923828125 -104.12911224365234
v 330.22052001953125 93.22366333007812 403.5011901855469
v -416.71392822265625 238.17251586914062 -314.4523010253906
v -403.573974609375 -169.50563049316406 51.39344024658203
v -32.983585357666016 -18.512615203857422 -60.89750671386719
v 302.3720397949219 -209.42979431152344 341.5438537597656
v -431.5612487792969 -59.8067626953125 -319.47113037109375
v -77.87538146972656 244.41201782226562 451.39453125
v -435.5987854003906 -181.725830078125 270.7864990234375
v -83.36888122558594 -5.695178508758545 175.2784423828125
v 70.3517837524414 79.72740173339844 271.1459655761719
v 489.4991455078125 122.34913635253906 39.366477966308594
v -333.11724853515625 -59.37435531616211 -227.5782012939453
v 45.94969177246094 -187.35052490234375 -19.63495635986328
v -253.84039306640625 -41.25848388671875 -235.06007385253906
v 134.93923950195312 184.6619110107422 12.974250793457031
v -197.6383514404297 77.05892944335938 292.69415283203125
v 342.3663635253906 -117.34525299072266 401.9132080078125
v 322.6200866699219 241.832763671875 143.88133239746094
v -427.1739807128906 -163.7087860107422 -164.25906372070312
v -146.57501220703125 -97.99370574951172 397.86407470703125
v -76.45365142822266 107.46001434326172 -201.25155639648438
v -382.9195556640625 -181.7430877685547 226.59402465820312
v 231.93919372558594 -111.84044647216797 -267.13104248046875
v -99.47689819335938 -203.7859344482422 -72.361328125
v -69.38156127929688 232.9834747314453 196.8507843017578
v -210.32266235351562 190.97947692871094 -434.8119201660156
v 9.78613567352295 113.06028747558594 427.8583679199219
v -20.49437141418457 -209.5225067138672 157.77833557128906
v -122.44122314453125 137.66668701171875 238.215087890625
v 256.021484375 122.87552642822266 -484.0477600097656
v 167.10299682617188 -87.33606719970703 -399.8282470703125
v 52.76708984375 149.8365478515625 -257.3126525878906
v 124.37151336669922 -141.10101318359375 -68.61676788330078
v 381.6166687011719 188.2028045654297 271.1556701660156
v -467.2225646972656 -85.73331451416016 -83.80384063720703
v -262.7482604980469 125.35762786865234 -32.76078796386719
v -125.68363952636719 9.746383666992188 -74.10169219970703
v 35.2629280090332 211.4732666015625 -52.790924072265625
v -182.55662536621094 -78.09380340576172 393.7519836425781
v -399.43212890625 94.62631225585938 -174.913818359375
v -500.5670166015625 -162.3896484375 460.93048095703125
v 442.6943664550781 -82.1518783569336 60.435176849365234
v -282.0023193359375 -139.5305633544922 -439.6014099121094
v 40.461368560791016 -161.92410278320312 -3.2968368530273438
v 122.61233520507812 -121.55888366699219 350.3249816894531
v -30.298866271972656 141.18133544921875 -202.3013458251953
v 99.28850555419922 -106.58219146728516 -194.2132568359375
v 62.89876174926758 -63.7230110168457 -227.58387756347656
v -315.5352478027344 158.1308135986328 -357.6783142089844
v -124.0140151977539 45.836456298828125 45.14537811279297
v 455.2257385253906 52.754432678222656 -443.6918029785156
v -465.9903564453125 -208.68701171875 449.6647033691406
v 95.23506164550781 138.71116638183594 -235.80316162109375
v 53.00497055053711 56.40199279785156 86.301025390625
v 367.5632019042969 -154.14137268066406 472.2918701171875
v -338.8616943359375 13.36647891998291 -246.25062561035156
v 4.01445198059082 180.98097229003906 254.07640075683594
v 291.042724609375 155.43016052246094 372.77911376953125
v -227.39723205566406 -58.18745422363281 -336.0029296875
v -265.7449035644531 -96.35834503173828 387.312744140625
v 385.499267578125 -114.8117904663086 -501.82843017578125
v -311.2279968261719 -32.67591094970703 -177.15164184570312
v 162.07025146484375 101.84505462646484 -329.3465576171875
v -501.02337646484375 42.74757766723633 -382.1944580078125
v -3.453287363052368 -114.60813903808594 87.68586730957031
v 174.547607421875 116.49849700927734 -460.8905334472656
v 24.413429260253906 244.5177459716797 -353.2019958496094
v -351.5540771484375 -40.33259201049805 -359.81329345703125
v 342.7773132324219 191.12841796875 -498.3557434082031
v 200.68475341796875 -62.0612678527832 -111.46875762939453
v 260.7715759277344 70.27818298339844 -3.8411874771118164
v 229.32156372070312 134.43861389160156 80.10799407958984
v -272.5256042480469 -111.99191284179688 497.89422607421875
v 203.9717254638672 -151.71669006347656 316.0960998535156
v 281.86724853515625 -147.99473571777344 -478.66424560546875
v 33.12628173828125 73.66905212402344 -225.16709899902344
v -448.9696044921875 110.8656234741211 246.5285186767578
v 349.6669616699219 179.5548858642578 427.3049011230469
v 16.069580078125 84.17186737060547 -310.4720153808594
v 296.2050476074219 -51.98594665527344 -58.85997009277344
v -86.81009674072266 233.0909423828125 147.97987365722656
v -447.7695007324219 -4.335370063781738 118.7913589477539
v 126.87977600097656 -174.7503662109375 -381.4416198730469
v 155.54237365722656 -201.2606201171875 83.4607162475586
v 126.33983612060547 21.764379501342773 -93.96227264404297
v -21.960174560546875 41.81504440307617 -187.7045135498047
v 46.08828353881836 245.9809112548828 -88.55517578125
v -216.31082153320312 22.49516487121582 423.50115966796875
v -159.90370178222656 -29.77842140197754 158.0365753173828
v 319.3399963378906 -9.073726654052734 83.24671173095703
v -271.1461181640625 -137.85708618164062 455.76837158203125
v 162.04884338378906 -86.57422637939453 -315.4011535644531
v -246.5616455078125 209.6731719970703 -87.53363037109375
v -315.3217468261719 -66.78922271728516 227.20623779296875
v 200.95468139648438 -191.57086181640625 -267.91168212890625
v -208.227294921875 239.7406005859375 500.0633850097656
v 134.63870239257812 39.50406265258789 496.2547607421875
v -68.92698669433594 53.02150344848633 -408.5811767578125
v 236.4609832763672 -163.92723083496094 403.6540222167969
v -18.485015869140625 -170.12918090820312 -313.2483825683594
v -346.7587585449219 241.87745666503906 -258.0287780761719
v -444.8328857421875 123.09844207763672 -297.276123046875
v -139.92005920410156 114.83753204345703 3.663823127746582
v 363.29705810546875 -42.66294860839844 349.1273498535156
v 304.33544921875 -111.73145294189453 -290.797119140625
v -271.38446044921875 68.3386459350586 435.0759582519531
v 452.4222717285156 -145.99945068359375 220.32058715820312
v -196.2689971923828 199.4529571533203 375.05517578125
v 265.377685546875 135.55287170410156 78.35256958007812
v -29.042516708374023 -46.78527069091797 -160.0753173828125
v -447.559326171875 10.952411651611328 -12.065690994262695
v -14.147281646728516 -189.01014709472656 -167.42123413085938
v 121.80937957763672 -84.72560119628906 7.1084442138671875
v -490.77716064453125 -111.03329467773438 458.70404052734375
v -128.7099151611328 -157.9604949951172 340.321533203125
v 116.81422424316406 131.92709350585938 476.9337158203125
v -234.2779998779297 -206.28172302246094 243.83558654785156
v 465.5229187011719 -21.307645797729492 -11.319084167480469
v -132.139892578125 -143.72653198242188 -157.24838256835938
v -307.3145446777344 146.41360473632812 61.0444450378418
v -188.18093872070312 166.4132843017578 -439.8605041503906
v 193.87576293945312 40.46098709106445 -134.58685302734375
v 16.22895050048828 170.53285217285156 -9.310124397277832
v 295.6153869628906 116.06520080566406 -485.24420166015625
v 458.9248352050781 236.68893432617188 -23.148578643798828
v -348.4843444824219 -17.424354553222656 57.066925048828125
v -324.71051025390625 22.88197135925293 -104.41231536865234
v -333.3974304199219 112.72284698486328 -17.95126724243164
v 49.29006576538086 -182.08766174316406 229.6856689453125
v -498.06298828125 -184.89125061035156 25.843536376953125
v 42.797027587890625 -209.3680877685547 149.96932983398438
v -226.87509155273438 57.79698181152344 221.4906005859375
v -138.05552673339844 77.02962493896484 -491.1814270019531
v 250.9228973388672 -80.16382598876953 -144.23451232910156
v -303.91082763671875 -70.23117065429688 -271.93414306640625
v 442.87908935546875 -62.67738723754883 87.1696548461914
v -247.65379333496094 -32.96275329589844 494.6396179199219
v -215.1925811767578 -193.3052215576172 -169.927978515625
v -286.27276611328125 -53.625755310058594 270.2456359863281
v -221.12095642089844 -4.1495137214660645 -68.63592529296875
v -257.42193603515625 -161.99224853515625 -44.07589340209961
v 76.22308349609375 -241.1116180419922 17.474021911621094
v 344.3099670410156 132.66275024414062 95.49205017089844
v -360.8359069824219 -169.70089721679688 134.19522094726562
v -265.65924072265625 154.29542541503906 -219.3218994140625
v -205.4179229736328 -185.23291015625 -337.4817810058594
v -335.2913818359375 -145.73825073242188 -149.82223510742188
v -403.6337890625 -33.10728073120117 177.51531982421875
v -151.00711059570312 3.546495199203491 -6.095160961151123
v 210.5421142578125 236.60520935058594 459.31085205078125
v -118.02561950683594 -90.64160919189453 -382.6139221191406
v 340.3869323730469 54.31028366088867 -43.720394134521484
v 118.8878173828125 209.13909912109375 80.54334259033203
v -380.2933349609375 182.4024658203125 -104.1493148803711
v -30.83258056640625 -25.661197662353516 -180.97085571289062
v 443.43328857421875 28.17028045654297 224.6527099609375
v -485.742431640625 -144.3220977783203 -96.17131805419922
v 146.80955505371094 -9.166278839111328 420.2214050292969
v -54.64216613769531 -83.45560455322266 351.01287841796875
v -109.33650207519531 143.97654724121094 334.0995178222656
v -418.10662841796875 -140.83157348632812 -174.67575073242188
v -364.3662109375 15.47213363647461 -48.106651306152344
v 26.048524856567383 -231.22958374023438 -300.3009948730469
v -160.3082733154297 -66.35002136230469 -263.28973388671875
v 79.87334442138672 123.49605560302734 -115.12416076660156
v 45.91498565673828 158.4107208251953 73.38460540771484
v 298.2699279785156 -161.8683624267578 71.91372680664062
v 420.2024230957031 -205.22872924804688 -100.9897232055664
v 452.58673095703125 134.83468627929688 166.73764038085938
v -481.5209655761719 -156.5926055908203 -54.46840286254883
v -229.40341186523438 27.920299530029297 -377.2464904785156
v -355.0760803222656 -24.340530395507812 499.5037841796875
v 74.30535125732422 -132.3898468017578 -309.8799133300781
v 33.86416244506836 -193.3216094970703 -318.3810729980469
v -51.66432189941406 97.08122253417969 493.4375305175781
v -220.78860473632812 -90.58846282958984 163.2022705078125
v -486.4483337402344 17.643291473388672 486.4095458984375
v 345.6773681640625 153.4652099609375 -128.3813934326172
v 192.13731384277344 187.92904663085938 135.45712280273438
v -455.5106201171875 -31.97213363647461 142.38719177246094
v 282.5138244628906 200.09767150878906 -414.6900329589844
v -438.064697265625 -161.50010681152344 327.7887878417969
v -413.7231750488281 70.73271942138672 177.27206420898438
v 174.8033447265625 -230.25132751464844 -475.1429748535156
v -220.2423553466797 -76.1429672241211 268.1563415527344
v -296.3606262207031 -169.50613403320312 366.881591796875
v 134.85873413085938 215.79220581054688 -194.1962432861328
v 173.7310333251953 -101.27362060546875 34.908748626708984
v -445.5146484375 223.95745849609375 -393.3498840332031
v -146.16461181640625 250.77503967285156 172.21072387695312
v 308.1929626464844 -134.36776733398438 358.9752197265625
v 238.9027557373047 -89.84109497070312 440.3035888671875
v -87.40877532958984 -72.30087280273438 277.2662353515625
v -37.59256362915039 46.19858169555664 6.828032970428467
v 469.5924377441406 5.938438892364502 -306.451904296875
v -246.61854553222656 236.00892639160156 142.46726989746094
v -503.23583984375 -191.93711853027344 141.5824432373047
v 367.8562927246094 -181.54412841796875 349.0597229003906
v -371.15704345703125 107.86051940917969 -503.49371337890625
v -240.84814453125 108.43400573730469 -476.82537841796875
v -427.1128845214844 -219.94363403320312 22.780181884765625
v 485.31201171875 -10.092872619628906 225.65191650390625
v -491.4052429199219 -183.69235229492188 -431.76324462890625
v 363.9691467285156 -127.94723510742188 -7.031569480895996
v -97.01663970947266 125.61494445800781 -199.43255615234375
v 362.0310974121094 220.06228637695312 341.775390625
v -94.07398223876953 -251.1388702392578 -274.242919921875
v -63.183074951171875 54.1718864440918 -117.43716430664062
v -455.0404052734375 218.6822509765625 -433.2265319824219
v -18.372095108032227 64.83546447753906 -284.8599853515625
v -176.67184448242188 231.92909240722656 -13.760290145874023
v -332.7752990722656 -231.90086364746094 -293.5190124511719
v 43.396121978759766 -59.90457534790039 -348.1346130371094
v -485.7095642089844 -11.302288055419922 -26.531766891479492
v -56.63690185546875 -49.231449127197266 23.083393096923828
v 179.69448852539062 174.66725158691406 340.1771240234375
v -344.3663635253906 25.90009307861328 -367.36328125
v -69.76947021484375 -50.146644592285156 478.5781555175781
v 257.24237060546875 143.99949645996094 146.7812957763672
v 330.48712158203125 205.09384155273438 79.89303588867188
v -234.5929718017578 238.719970703125 -292.682373046875
v -386.3814697265625 -39.43533706665039 -51.67411804199219
v 13.578057289123535 -60.76370620727539 266.8360595703125
v 502.0176086425781 98.30216979980469 -169.5011444091797
v -471.72381591796875 -78.19383239746094 12.35728645324707
v 2.2521162033081055 94.75 339.6573486328125
v 349.5556945800781 -199.53880310058594 -409.0283203125
v -141.889892578125 207.82791137695312 -289.4317321777344
v 405.103271484375 77.39122772216797 -244.87217712402344
v 266.20965576171875 60.98041915893555 -63.98060607910156
v 138.7789306640625 -56.234947204589844 69.892333984375
v 459.3621520996094 -204.56321716308594 -152.0619354248047
v 155.82745361328125 188.97280883789062 304.8004150390625
v -405.26202392578125 96.99966430664062 130.3802490234375
v 34.03620529174805 -143.91973876953125 -288.1620178222656
v 141.86822509765625 150.57823181152344 247.0021514892578
v 469.7859191894531 -234.8479766845703 -500.35687255859375
v -295.3757019042969 27.892629623413086 247.10948181152344
v -304.7608337402344 137.5308074951172 447.1870422363281
v -341.44708251953125 -131.2001190185547 -99.01020812988281
v 244.8321990966797 92.65155792236328 -39.0094108581543
v 435.3027648925781 8.027276992797852 357.9671936035156
v -347.2169189453125 -49.975399017333984 35.355594635009766
v 442.3631896972656 -15.751883506774902 -393.52166748046875
v 203.50112915039062 -203.86160278320312 24.135595321655273
v -308.0546875 40.89493942260742 43.452728271484375
v 356.5789489746094 112.71293640136719 254.24388122558594
v -157.42990112304688 -14.620519638061523 85.39027404785156
v 434.4708251953125 104.47628784179688 -347.60736083984375
v 177.7867431640625 32.974098205566406 454.7625732421875
v 285.00775146484375 -165.057861328125 360.4793395996094
v 9.430089950561523 141.0080108642578 375.7247314453125
v -84.42855834960938 65.03282165527344 -479.416748046875
v 408.93438720703125 247.7425994873047 147.60787963867188
v 280.04632568359375 -100.67759704589844 500.70672607421875
v 486.455322265625 -14.186439514160156 -311.726806640625
v 270.5907897949219 -126.33368682861328 -69.80685424804688
v 172.91197204589844 135.96331787109375 -396.8589172363281
v 358.81524658203125 33.53887176513672 -313.82513427734375
v 261.543701171875 76.43604278564453 130.56985473632812
v 136.12701416015625 -129.98275756835938 422.4514465332031
v 444.18804931640625 196.36814880371094 371.2420959472656
v -304.201416015625 7.529810905456543 410.8707275390625
v 0.21803733706474304 143.2805938720703 -112.67399597167969
v 30.73780632019043 9.729510307312012 199.5815887451172
v 197.9385986328125 54.865657806396484 143.4138641357422
v -366.0146179199219 6.657046318054199 -10.550239562988281
v 476.2247009277344 -6.841299057006836 -37.400909423828125
v -433.3631286621094 215.22625732421875 -283.5258483886719
v -128.70587158203125 188.39694213867188 434.53717041015625
v -244.81663513183594 -10.506443977355957 351.2137145996094
v -485.2583312988281 67.89022827148438 464.9460144042969
v 344.18701171875 116.66548156738281 25.031614303588867
v 305.3211364746094 229.5650634765625 460.73492431640625
v 475.7540283203125 -119.14674377441406 -265.6151428222656
v 95.44587707519531 201.99142456054688 -35.18914031982422
v -102.5598373413086 -155.2997589111328 -270.5649719238281
v 364.9878845214844 18.162864685058594 444.59576416015625
v -321.97991943359375 56.687957763671875 -471.0726318359375
v 178.68997192382812 -215.4261474609375 -390.6031494140625
v -393.0256652832031 134.6686248779297 -257.41766357421875
v -289.63531494140625 115.72425842285156 -472.9927978515625
v 371.5943603515625 191.4765625 296.16546630859375
v -417.9615478515625 136.57925415039062 -179.72705078125
v 356.27740478515625 127.83840942382812 77.9488754272461
v 340.3083190917969 137.2239227294922 -75.15223693847656
v 262.8809814453125 208.73138427734375 -450.551513671875
v 14.413175582885742 -39.524696350097656 -173.03546142578125
v 279.9277038574219 -50.66868209838867 379.1195068359375
v -226.11886596679688 -67.94957733154297 -6.211022853851318
v -117.00190734863281 145.24667358398438 100.11272430419922
v -172.9017333984375 45.53742599487305 461.7787170410156
v 131.82168579101562 148.35205078125 13.242781639099121
v 234.75430297851562 204.3778533935547 435.45635986328125
v -351.6274108886719 -102.28563690185547 -279.0097351074219
v 412.85430908203125 -230.15858459472656 -194.88616943359375
v -122.30175018310547 -211.65301513671875 -145.3431396484375
v -8.154501914978027 -206.93922424316406 -243.79995727539062
v -175.74322509765625 -53.668025970458984 -340.28533935546875
v 108.39207458496094 -181.907958984375 -253.49661254882812
v -399.78997802734375 140.71754455566406 72.93738555908203
v -210.55899047851562 61.177764892578125 -311.2755126953125
v 477.4167785644531 244.0277099609375 234.0734405517578
v 91.45542907714844 -43.58733367919922 450.6444396972656
v -87.2083740234375 -106.28673553466797 -420.38275146484375
v 96.05213165283203 -244.65176391601562 211.8279266357422
v -235.75701904296875 129.92774963378906 377.6575622558594
v -360.2362060546875 -16.77934455871582 289.66021728515625
v 354.5745544433594 170.12954711914062 15.828113555908203
v 433.25604248046875 108.94778442382812 343.5008850097656
v 240.5321502685547 235.69068908691406 112.05767822265625
v -300.9361572265625 5.313847541809082 -97.15272521972656
v -469.4007568359375 -26.564884185791016 279.1139831542969
v 201.77096557617188 -230.6529998779297 -33.36576461791992
v -132.80838012695312 -80.665771484375 133.85726928710938
v -312.45928955078125 -157.70709228515625 225.15684509277344
v 5.573723316192627 103.95410919189453 95.66647338867188
v -333.9842834472656 79.29863739013672 214.58653259277344
v 78.11521911621094 15.179052352905273 12.672750473022461
v -68.16159057617188 8.444624900817871 -302.3392639160156
v 43.42943572998047 -55.272056579589844 148.23207092285156
v 10.403738975524902 40.59825134277344 195.86080932617188
v 24.48114013671875 150.5347900390625 -227.50967407226562
v 205.93978881835938 -208.78884887695312 157.25149536132812
v -103.07637023925781 -133.31822204589844 -374.0587463378906
v -383.3786926269531 230.143310546875 185.14071655273438
v -214.27833557128906 165.75328063964844 -199.45021057128906
v 216.15573120117188 167.3701934814453 -93.17306518554688
v 203.5388641357422 -47.27926254272461 378.3094482421875
v 91.14031982421875 -215.48431396484375 491.9360046386719
v 309.414794921875 180.27398681640625 328.0252380371094
v 63.47385787963867 -231.9488983154297 95.20917510986328
v -472.0707702636719 -21.619245529174805 -108.34017181396484
v -463.7846984863281 -72.78736114501953 -417.91253662109375
v 190.34764099121094 21.286596298217773 -37.24745559692383
v -25.483537673950195 -50.2880744934082 388.04791259765625
v 359.16363525390625 168.6591796875 -89.78182983398438
v 201.61489868164062 -81.34880828857422 319.3810119628906
v -268.9981384277344 -134.36422729492188 62.25381088256836
v -147.64207458496094 -125.7975845336914 482.9580383300781
v -140.98435974121094 -143.3500213623047 320.12933349609375
v 450.337646484375 163.07098388671875 182.52159118652344
v -206.28909301757812 39.593177795410156 -188.6913604736328
v 458.4515075683594 -76.96206665039062 82.14191436767578
v 373.55059814453125 -136.3912353515625 -425.35418701171875
v -312.4377746582031 116.46049499511719 28.715974807739258
v 342.739013671875 63.12157440185547 384.3222961425781
v 224.91539001464844 145.00933837890625 267.7455749511719
v 380.2592468261719 -69.92769622802734 6.738001823425293
v -205.91799926757812 -66.36819458007812 -300.8847961425781
v -205.46775817871094 175.2562255859375 -471.2591857910156
v 92.42830657958984 218.25375366210938 405.19970703125
v 378.98858642578125 -210.342041015625 499.3765563964844
v -38.526058197021484 -201.43128967285156 421.3663330078125
v -429.608642578125 135.22840881347656 493.7627258300781
v -211.0157012939453 -26.088659286499023 71.7947998046875
v 22.919178009033203 3.167574405670166 -444.263671875
v 222.25198364257812 80.1733169555664 -55.476341247558594
v 353.8165283203125 -204.04388427734375 8.598134994506836
v 464.757080078125 158.49295043945312 -368.2593078613281
v 333.8397216796875 -195.37872314453125 -192.42745971679688
v -11.745285987854004 37.536041259765625 -142.43092346191406
v -9.226097106933594 24.52702522277832 -101.47589111328125
v -381.6764221191406 214.083740234375 386.9606018066406
v -102.03168487548828 -79.15422058105469 212.0184326171875
v 338.5174255371094 -19.145896911621094 442.7920837402344
v 199.13412475585938 150.29852294921875 490.98736572265625
v -218.50296020507812 61.507728576660156 444.86932373046875
v 398.5705871582031 -195.75753784179688 -264.94488525390625
v -102.12142181396484 -175.8766326904297 -4.721065998077393
v 273.53265380859375 -160.7599639892578 -263.996337890625
v 266.0193176269531 -106.42170715332031 -167.614013671875
v -202.37527465820312 12.360166549682617 283.90313720703125
v -400.42938232421875 195.72874450683594 -336.23858642578125
v -432.09796142578125 -188.85748291015625 41.10407638549805
v -8.637293815612793 175.55958557128906 413.4311828613281
v 114.78347778320312 -70.10242462158203 -73.41400909423828
v -378.9548645019531 -200.94210815429688 0.07467353343963623
v -458.07403564453125 -25.679954528808594 -126.92184448242188
v 352.8910217285156 143.96388244628906 -476.84173583984375
v -452.1171569824219 -197.2396240234375 -55.084590911865234
v 258.2825622558594 -22.736549377441406 -151.5252227783203
v 441.6652526855469 230.42874145507812 -153.23602294921875
v 365.630126953125 -227.19009399414062 -331.8306884765625
v 419.24774169921875 51.798095703125 127.14862823486328
v -396.16412353515625 -157.7012939453125 394.0653381347656
v 32.60570526123047 -247.97225952148438 -150.8649444580078
v -245.10218811035156 222.46707153320312 445.96527099609375
v 172.04464721679688 31.845558166503906 302.5674743652344
v 297.85919189453125 230.35165405273438 305.5837097167969
v 39.37786102294922 237.50747680664062 286.9341125488281
v -290.9569091796875 -71.78937530517578 -431.1194763183594
v 428.930908203125 39.694114685058594 164.2293701171875
v -430.62969970703125 95.80252075195312 415.7964782714844
v -9.601433753967285 126.01004028320312 -369.89617919921875
v 333.54473876953125 243.61279296875 -110.24817657470703
v -174.7489013671875 -83.38250732421875 -241.85986328125
v -467.00225830078125 -174.17030334472656 346.7543640136719
v -254.3155517578125 144.96681213378906 -172.73577880859375
v 145.7194061279297 -96.1052017211914 426.57159423828125
v 85.03007507324219 -186.922607421875 245.0987548828125
v 366.4623107910156 -124.21082305908203 -20.843547821044922
v -17.912702560424805 -135.12176513671875 173.48721313476562
v 177.28897094726562 36.364906311035156 35.37569046020508
v -379.98681640625 241.23373413085938 -246.53602600097656
v -273.9571838378906 -116.50762939453125 -234.92617797851562
v 242.20126342773438 -162.0392303466797 -225.38217163085938
v 384.0572204589844 243.06729125976562 296.61541748046875
v -415.99700927734375 178.88455200195312 -446.9072265625
v -166.72366333007812 18.507360458374023 183.28260803222656
v 453.19195556640625 -168.7139129638672 -227.60760498046875
v -502.05389404296875 174.76690673828125 480.2640380859375
v 190.74327087402344 178.46070861816406 -255.29934692382812
v -273.85723876953125 -103.39137268066406 -119.54370880126953
v -22.202552795410156 -80.96260833740234 -229.3964080810547
v -371.35888671875 -26.60466957092285 -117.09253692626953
v -372.4005432128906 -79.29986572265625 198.89402770996094
v -188.0163116455078 91.50017547607422 357.4675598144531
v -400.2488708496094 236.50796508789062 290.5623474121094
v 38.096343994140625 142.08245849609375 -101.93040466308594
v 85.28638458251953 -61.373130798339844 -452.8758850097656
v -256.5941467285156 -190.0628662109375 112.04937744140625
v 1.8763761520385742 -139.53311157226562 152.10658264160156
v 43.14853286743164 15.899215698242188 449.0218200683594
v 475.89251708984375 227.45974731445312 398.8131103515625
v 122.41874694824219 46.37077713012695 -294.93450927734375
v -380.8967590332031 -57.4830322265625 104.40699005126953
v 5.490850925445557 180.4361114501953 -222.6730499267578
p 1 2 3 4 5 6 7 8 9 10 11 12 13 14 15 16 17 18 19 20 21 22 23 24 25 26 27 28 29 30 31 32 33 34 35 36 37 38 39 40 41 42 43 44 45 46 47 48 49 50 51 52 53 54 55 56 57 58 59 60 61 62 63 64 65 66 67 68 69 70 71 72 73 74 75 76 77 78 79 80 81 82 83 84 85 86 87 88 89 90 91 92 93 94 95 96 97 98 99 100 101 102 103 104 105 106 107 108 109 110 111 112 113 114 115 116 117 118 119 120 121 122 123 124 125 126 127 128 129 130 131 132 133 134 135 136 137 138 139 140 141 142 143 144 145 146 147 148 149 150 151 152 153 154 155 156 157 158 159 160 161 162 163 164 165 166 167 168 169 170 171 172 173 174 175 176 177 178 179 180 181 182 183 184 185 186 187 188 189 190 191 192 193 194 195 196 197 198 199 200 201 202 203 204 205 206 207 208 209 210 211 212 213 214 215 216 217 218 219 220 221 222 223 224 225 226 227 228 229 230 231 232 233 234 235 236 237 238 239 240 241 242 243 244 245 246 247 248 249 250 251 252 253 254 255 256 257 258 259 260 261 262 263 264 265 266 267 268 269 270 271 272 273 274 275 276 277 278 279 280 281 282 283 284 285 286 287 288 289 290 291 292 293 294 295 296 297 298 299 300 301 302 303 304 305 306 307 308 309 310 311 312 313 314 315 316 317 318 319 320 321 322 323 324 325 326 327 328 329 330 331 332 333 334 335 336 337 338 339 340 341 342 343 344 345 346 347 348 349 350 351 352 353 354 355 356 357 358 359 360 361 362 363 364 365 366 367 368 369 370 371 372 373 374 375 376 377 378 379 380 381 382 383 384 385 386 387 388 389 390 391 392 393 394 395 396 397 398 399 400 401 402 403 404 405 406 407 408 409 410 411 412 413 414 415 416 417 418 419 420 421 422 423 424 425 426 427 428 429 430 431 432 433 434 435 436 437 438 439 440 441 442 443 444 445 446 447 448 449 450 451 452 453 454 455 456 457 458 459 460 461 462 463 464 465 466 467 468 469 470 471 472 473 474 475 476 477 478 479 480 481 482 483 484 485 486 487 488 489 490 491 492 493 494 495 496 497 498 499 500 501 502 503 504 505 506 507 508 509 510 511 512 513 514 515 516 517 518 519 520 521 522 523 524 525 526 527 528 529 530 531 532 533 534 535 536 537 538 539 540 541 542 543 544 545 546 547 548 549 550 551 552 553 554 555 556 557 558 559 560 561 562 563 564 565 566 567 568 569 570 571 572 573 574 575 576 577 578 579 580 581 582 583 584 585 586 587 588 589 590 591 592 593 594 595 596 597 598 599 600 601 602 603 604 605 606 607 608 609 610 611 612 613 614 615 616 617 618 619 620 621 622 623 624 625 626 627 628 629 630 631 632 633 634 635 636 637 638 639 640 641 642 643 644 645 646 647 648 649 650 651 652 653 654 655 656 657 658 659 660 661 662 663 664 665 666 667 668 669 670 671 672 673 674 675 676 677 678 679 680 681 682 683 684 685 686 687 688 689 690 691 692 693 694 695 696 697 698 699 700 701 702 703 704 705 706 707 708 709 710 711 712 713 714 715 716 717 718 719 720 721 722 723 724 725 726 727 728 729 730 731 732 733 734 735 736 737 738 739 740 741 742 743 744 745 746 747 748 749 750 751 752 753 754 755 756 757 758 759 760 761 762 763 764 765 766 767 768 769 770 771 772 773 774 775 776 777 778 779 780 781 782 783 784 785 786 787 788 789 790 791 792 793 794 795 796 797 798 799 800 801 802 803 804 805 806 807 808 809 810 811 812 813 814 815 816 817 818 819 820 821 822 823 824 825 826 827 828 829 830 831 832 833 834 835 836 837 838 839 840 841 842 843 844 845 846 847 848 849 850 851 852 853 854 855 856 857 858 859 860 861 862 863 864 865 866 867 868 869 870 871 872 873 874 875 876 877 878 879 880 881 882 883 884 885 886 887 888 889 890 891 892 893 894 895 896 897 898 899 900 
